<?xml version="1.0" encoding="utf-8" standalone="no"?>
<!DOCTYPE svg PUBLIC "-//W3C//DTD SVG 1.1//EN"
  "http://www.w3.org/Graphics/SVG/1.1/DTD/svg11.dtd">
<svg xmlns:xlink="http://www.w3.org/1999/xlink" width="1167.352941pt" height="756pt" viewBox="0 0 1167.352941 756" xmlns="http://www.w3.org/2000/svg" version="1.1">
 <metadata>
  <rdf:RDF xmlns:dc="http://purl.org/dc/elements/1.1/" xmlns:cc="http://creativecommons.org/ns#" xmlns:rdf="http://www.w3.org/1999/02/22-rdf-syntax-ns#">
   <cc:Work>
    <dc:type rdf:resource="http://purl.org/dc/dcmitype/StillImage"/>
    <dc:date>2026-05-17T10:38:53.473369</dc:date>
    <dc:format>image/svg+xml</dc:format>
    <dc:creator>
     <cc:Agent>
      <dc:title>Matplotlib v3.10.9, https://matplotlib.org/</dc:title>
     </cc:Agent>
    </dc:creator>
   </cc:Work>
  </rdf:RDF>
 </metadata>
 <defs>
  <style type="text/css">*{stroke-linejoin: round; stroke-linecap: butt}</style>
 </defs>
 <g id="figure_1">
  <g id="patch_1">
   <path d="M 0 756 
L 1167.352941 756 
L 1167.352941 0 
L 0 0 
L 0 756 
z
" style="fill: none; opacity: 0"/>
  </g>
  <g id="axes_1">
   <g id="line2d_1">
    <path d="M 583.676471 756 
L 583.676471 -0 
L 1167.352941 -0 
L 1167.352941 756 
L 0 756 
L 0 -0 
L 583.676471 -0 
" clip-path="url(#p5df6d641d8)" style="fill: none; stroke: #ffffff; stroke-width: 1.2; stroke-linecap: square"/>
   </g>
   <g id="line2d_2">
    <path d="M 1167.352941 602.131765 
L 983.911765 602.131765 
L 983.911765 153.868235 
L 1167.352941 153.868235 
" clip-path="url(#p5df6d641d8)" style="fill: none; stroke: #ffffff; stroke-width: 1.2; stroke-linecap: square"/>
   </g>
   <g id="line2d_3">
    <path d="M 0 602.131765 
L 183.441176 602.131765 
L 183.441176 153.868235 
L 0 153.868235 
" clip-path="url(#p5df6d641d8)" style="fill: none; stroke: #ffffff; stroke-width: 1.2; stroke-linecap: square"/>
   </g>
   <g id="line2d_4">
    <path d="M 1167.352941 479.837647 
L 1106.205882 479.837647 
L 1106.205882 276.162353 
L 1167.352941 276.162353 
" clip-path="url(#p5df6d641d8)" style="fill: none; stroke: #ffffff; stroke-width: 1.2; stroke-linecap: square"/>
   </g>
   <g id="line2d_5">
    <path d="M 0 479.837647 
L 61.147059 479.837647 
L 61.147059 276.162353 
L 0 276.162353 
" clip-path="url(#p5df6d641d8)" style="fill: none; stroke: #ffffff; stroke-width: 1.2; stroke-linecap: square"/>
   </g>
   <g id="patch_2">
    <path d="M 583.676471 479.726471 
C 610.654646 479.726471 636.531497 469.007928 655.607948 449.931477 
C 674.684399 430.855026 685.402941 404.978175 685.402941 378 
C 685.402941 351.021825 674.684399 325.144974 655.607948 306.068523 
C 636.531497 286.992072 610.654646 276.273529 583.676471 276.273529 
C 556.698295 276.273529 530.821444 286.992072 511.744993 306.068523 
C 492.668543 325.144974 481.95 351.021825 481.95 378 
C 481.95 404.978175 492.668543 430.855026 511.744993 449.931477 
C 530.821444 469.007928 556.698295 479.726471 583.676471 479.726471 
L 583.676471 479.726471 
z
" clip-path="url(#p5df6d641d8)" style="fill: none; stroke: #ffffff; stroke-width: 1.2; stroke-linejoin: miter"/>
   </g>
   <g id="patch_3">
    <path d="M 183.441176 459.297675 
C 196.0429 449.819442 206.269936 437.53971 213.312108 423.431269 
C 220.354281 409.322827 224.020588 393.768333 224.020588 378 
C 224.020588 362.231667 220.354281 346.677173 213.312108 332.568731 
C 206.269936 318.46029 196.0429 306.180558 183.441176 296.702325 
" clip-path="url(#p5df6d641d8)" style="fill: none; stroke: #ffffff; stroke-width: 1.2; stroke-linejoin: miter"/>
   </g>
   <g id="patch_4">
    <path d="M 983.911765 296.702325 
C 971.310042 306.180558 961.083005 318.46029 954.040833 332.568731 
C 946.99866 346.677173 943.332353 362.231667 943.332353 378 
C 943.332353 393.768333 946.99866 409.322827 954.040833 423.431269 
C 961.083005 437.53971 971.310042 449.819442 983.911765 459.297675 
" clip-path="url(#p5df6d641d8)" style="fill: none; stroke: #ffffff; stroke-width: 1.2; stroke-linejoin: miter"/>
   </g>
   <g id="patch_5">
    <path d="M 583.676471 380.441435 
C 584.323947 380.441435 584.944991 380.18419 585.402826 379.726355 
C 585.860661 379.268521 586.117906 378.647476 586.117906 378 
C 586.117906 377.352524 585.860661 376.731479 585.402826 376.273645 
C 584.944991 375.81581 584.323947 375.558565 583.676471 375.558565 
C 583.028994 375.558565 582.40795 375.81581 581.950115 376.273645 
C 581.49228 376.731479 581.235035 377.352524 581.235035 378 
C 581.235035 378.647476 581.49228 379.268521 581.950115 379.726355 
C 582.40795 380.18419 583.028994 380.441435 583.676471 380.441435 
z
" clip-path="url(#p5df6d641d8)" style="fill: #ffffff; stroke: #ffffff; stroke-linejoin: miter"/>
   </g>
   <g id="patch_6">
    <path d="M 122.294118 380.441435 
C 122.941594 380.441435 123.562638 380.18419 124.020473 379.726355 
C 124.478308 379.268521 124.735553 378.647476 124.735553 378 
C 124.735553 377.352524 124.478308 376.731479 124.020473 376.273645 
C 123.562638 375.81581 122.941594 375.558565 122.294118 375.558565 
C 121.646641 375.558565 121.025597 375.81581 120.567762 376.273645 
C 120.109927 376.731479 119.852682 377.352524 119.852682 378 
C 119.852682 378.647476 120.109927 379.268521 120.567762 379.726355 
C 121.025597 380.18419 121.646641 380.441435 122.294118 380.441435 
z
" clip-path="url(#p5df6d641d8)" style="fill: #ffffff; stroke: #ffffff; stroke-linejoin: miter"/>
   </g>
   <g id="patch_7">
    <path d="M 1045.058824 380.441435 
C 1045.7063 380.441435 1046.327344 380.18419 1046.785179 379.726355 
C 1047.243014 379.268521 1047.500259 378.647476 1047.500259 378 
C 1047.500259 377.352524 1047.243014 376.731479 1046.785179 376.273645 
C 1046.327344 375.81581 1045.7063 375.558565 1045.058824 375.558565 
C 1044.411347 375.558565 1043.790303 375.81581 1043.332468 376.273645 
C 1042.874633 376.731479 1042.617388 377.352524 1042.617388 378 
C 1042.617388 378.647476 1042.874633 379.268521 1043.332468 379.726355 
C 1043.790303 380.18419 1044.411347 380.441435 1045.058824 380.441435 
z
" clip-path="url(#p5df6d641d8)" style="fill: #ffffff; stroke: #ffffff; stroke-linejoin: miter"/>
   </g>
   <g id="line2d_6">
    <path d="M 1167.352941 337.309412 
L 1167.352941 418.690588 
" clip-path="url(#p5df6d641d8)" style="fill: none; stroke: #ffffff; stroke-width: 2.4; stroke-linecap: square"/>
   </g>
   <g id="line2d_7">
    <path d="M 0 337.309412 
L 0 418.690588 
" clip-path="url(#p5df6d641d8)" style="fill: none; stroke: #ffffff; stroke-width: 2.4; stroke-linecap: square"/>
   </g>
  </g>
 </g>
 <defs>
  <clipPath id="p5df6d641d8">
   <rect x="0" y="-0" width="1167.352941" height="756"/>
  </clipPath>
 </defs>
</svg>
