<?xml version="1.0" encoding="utf-8" standalone="no"?>
<!DOCTYPE svg PUBLIC "-//W3C//DTD SVG 1.1//EN"
  "http://www.w3.org/Graphics/SVG/1.1/DTD/svg11.dtd">
<svg xmlns:xlink="http://www.w3.org/1999/xlink" width="1167.352941pt" height="756pt" viewBox="0 0 1167.352941 756" xmlns="http://www.w3.org/2000/svg" version="1.1">
 <metadata>
  <rdf:RDF xmlns:dc="http://purl.org/dc/elements/1.1/" xmlns:cc="http://creativecommons.org/ns#" xmlns:rdf="http://www.w3.org/1999/02/22-rdf-syntax-ns#">
   <cc:Work>
    <dc:type rdf:resource="http://purl.org/dc/dcmitype/StillImage"/>
    <dc:date>2026-05-17T09:52:54.535954</dc:date>
    <dc:format>image/svg+xml</dc:format>
    <dc:creator>
     <cc:Agent>
      <dc:title>Matplotlib v3.10.9, https://matplotlib.org/</dc:title>
     </cc:Agent>
    </dc:creator>
   </cc:Work>
  </rdf:RDF>
 </metadata>
 <defs>
  <style type="text/css">*{stroke-linejoin: round; stroke-linecap: butt}</style>
 </defs>
 <g id="figure_1">
  <g id="patch_1">
   <path d="M 0 756 
L 1167.352941 756 
L 1167.352941 0 
L 0 0 
L 0 756 
z
" style="fill: none; opacity: 0"/>
  </g>
  <g id="axes_1">
   <g id="line2d_1">
    <path d="M 583.676471 756 
L 583.676471 -0 
L 1167.352941 -0 
L 1167.352941 756 
L 0 756 
L 0 -0 
L 583.676471 -0 
" clip-path="url(#pc75345d536)" style="fill: none; stroke: #ffffff; stroke-width: 1.2; stroke-linecap: square"/>
   </g>
   <g id="line2d_2">
    <path d="M 1167.352941 602.131765 
L 983.911765 602.131765 
L 983.911765 153.868235 
L 1167.352941 153.868235 
" clip-path="url(#pc75345d536)" style="fill: none; stroke: #ffffff; stroke-width: 1.2; stroke-linecap: square"/>
   </g>
   <g id="line2d_3">
    <path d="M 0 602.131765 
L 183.441176 602.131765 
L 183.441176 153.868235 
L 0 153.868235 
" clip-path="url(#pc75345d536)" style="fill: none; stroke: #ffffff; stroke-width: 1.2; stroke-linecap: square"/>
   </g>
   <g id="line2d_4">
    <path d="M 1167.352941 479.837647 
L 1106.205882 479.837647 
L 1106.205882 276.162353 
L 1167.352941 276.162353 
" clip-path="url(#pc75345d536)" style="fill: none; stroke: #ffffff; stroke-width: 1.2; stroke-linecap: square"/>
   </g>
   <g id="line2d_5">
    <path d="M 0 479.837647 
L 61.147059 479.837647 
L 61.147059 276.162353 
L 0 276.162353 
" clip-path="url(#pc75345d536)" style="fill: none; stroke: #ffffff; stroke-width: 1.2; stroke-linecap: square"/>
   </g>
   <g id="patch_2">
    <path d="M 583.676471 479.726471 
C 610.654646 479.726471 636.531497 469.007928 655.607948 449.931477 
C 674.684399 430.855026 685.402941 404.978175 685.402941 378 
C 685.402941 351.021825 674.684399 325.144974 655.607948 306.068523 
C 636.531497 286.992072 610.654646 276.273529 583.676471 276.273529 
C 556.698295 276.273529 530.821444 286.992072 511.744993 306.068523 
C 492.668543 325.144974 481.95 351.021825 481.95 378 
C 481.95 404.978175 492.668543 430.855026 511.744993 449.931477 
C 530.821444 469.007928 556.698295 479.726471 583.676471 479.726471 
L 583.676471 479.726471 
z
" clip-path="url(#pc75345d536)" style="fill: none; stroke: #ffffff; stroke-width: 1.2; stroke-linejoin: miter"/>
   </g>
   <g id="patch_3">
    <path d="M 183.441176 459.297675 
C 196.0429 449.819442 206.269936 437.53971 213.312108 423.431269 
C 220.354281 409.322827 224.020588 393.768333 224.020588 378 
C 224.020588 362.231667 220.354281 346.677173 213.312108 332.568731 
C 206.269936 318.46029 196.0429 306.180558 183.441176 296.702325 
" clip-path="url(#pc75345d536)" style="fill: none; stroke: #ffffff; stroke-width: 1.2; stroke-linejoin: miter"/>
   </g>
   <g id="patch_4">
    <path d="M 983.911765 296.702325 
C 971.310042 306.180558 961.083005 318.46029 954.040833 332.568731 
C 946.99866 346.677173 943.332353 362.231667 943.332353 378 
C 943.332353 393.768333 946.99866 409.322827 954.040833 423.431269 
C 961.083005 437.53971 971.310042 449.819442 983.911765 459.297675 
" clip-path="url(#pc75345d536)" style="fill: none; stroke: #ffffff; stroke-width: 1.2; stroke-linejoin: miter"/>
   </g>
   <g id="patch_5">
    <path d="M 583.676471 380.441435 
C 584.323947 380.441435 584.944991 380.18419 585.402826 379.726355 
C 585.860661 379.268521 586.117906 378.647476 586.117906 378 
C 586.117906 377.352524 585.860661 376.731479 585.402826 376.273645 
C 584.944991 375.81581 584.323947 375.558565 583.676471 375.558565 
C 583.028994 375.558565 582.40795 375.81581 581.950115 376.273645 
C 581.49228 376.731479 581.235035 377.352524 581.235035 378 
C 581.235035 378.647476 581.49228 379.268521 581.950115 379.726355 
C 582.40795 380.18419 583.028994 380.441435 583.676471 380.441435 
z
" clip-path="url(#pc75345d536)" style="fill: #ffffff; stroke: #ffffff; stroke-linejoin: miter"/>
   </g>
   <g id="patch_6">
    <path d="M 122.294118 380.441435 
C 122.941594 380.441435 123.562638 380.18419 124.020473 379.726355 
C 124.478308 379.268521 124.735553 378.647476 124.735553 378 
C 124.735553 377.352524 124.478308 376.731479 124.020473 376.273645 
C 123.562638 375.81581 122.941594 375.558565 122.294118 375.558565 
C 121.646641 375.558565 121.025597 375.81581 120.567762 376.273645 
C 120.109927 376.731479 119.852682 377.352524 119.852682 378 
C 119.852682 378.647476 120.109927 379.268521 120.567762 379.726355 
C 121.025597 380.18419 121.646641 380.441435 122.294118 380.441435 
z
" clip-path="url(#pc75345d536)" style="fill: #ffffff; stroke: #ffffff; stroke-linejoin: miter"/>
   </g>
   <g id="patch_7">
    <path d="M 1045.058824 380.441435 
C 1045.7063 380.441435 1046.327344 380.18419 1046.785179 379.726355 
C 1047.243014 379.268521 1047.500259 378.647476 1047.500259 378 
C 1047.500259 377.352524 1047.243014 376.731479 1046.785179 376.273645 
C 1046.327344 375.81581 1045.7063 375.558565 1045.058824 375.558565 
C 1044.411347 375.558565 1043.790303 375.81581 1043.332468 376.273645 
C 1042.874633 376.731479 1042.617388 377.352524 1042.617388 378 
C 1042.617388 378.647476 1042.874633 379.268521 1043.332468 379.726355 
C 1043.790303 380.18419 1044.411347 380.441435 1045.058824 380.441435 
z
" clip-path="url(#pc75345d536)" style="fill: #ffffff; stroke: #ffffff; stroke-linejoin: miter"/>
   </g>
   <g id="line2d_6">
    <path d="M 1167.352941 337.309412 
L 1167.352941 418.690588 
" clip-path="url(#pc75345d536)" style="fill: none; stroke: #ffffff; stroke-width: 2.4; stroke-linecap: square"/>
   </g>
   <g id="line2d_7">
    <path d="M 0 337.309412 
L 0 418.690588 
" clip-path="url(#pc75345d536)" style="fill: none; stroke: #ffffff; stroke-width: 2.4; stroke-linecap: square"/>
   </g>
   <g id="line2d_8">
    <path d="M 277.941176 644.823529 
L 945 133.411765 
" clip-path="url(#pc75345d536)" style="fill: none; stroke: #4ade80; stroke-opacity: 0.85; stroke-width: 4.32175; stroke-linecap: round"/>
   </g>
   <g id="line2d_9">
    <path d="M 277.941176 644.823529 
L 244.588235 378 
" clip-path="url(#pc75345d536)" style="fill: none; stroke: #74b670; stroke-opacity: 0.85; stroke-width: 4.88425; stroke-linecap: round"/>
   </g>
   <g id="line2d_10">
    <path d="M 389.117647 378 
L 244.588235 378 
" clip-path="url(#pc75345d536)" style="fill: none; stroke: #85a66a; stroke-opacity: 0.85; stroke-width: 5.1; stroke-linecap: round"/>
   </g>
   <g id="line2d_11">
    <path d="M 277.941176 644.823529 
L 389.117647 378 
" clip-path="url(#pc75345d536)" style="fill: none; stroke: #9f8e61; stroke-opacity: 0.85; stroke-width: 4.88425; stroke-linecap: round"/>
   </g>
   <g id="line2d_12">
    <path d="M 945 133.411765 
L 244.588235 378 
" clip-path="url(#pc75345d536)" style="fill: none; stroke: #ab835c; stroke-opacity: 0.85; stroke-width: 4.5375; stroke-linecap: round"/>
   </g>
   <g id="line2d_13">
    <path d="M 945 133.411765 
L 389.117647 378 
" clip-path="url(#pc75345d536)" style="fill: none; stroke: #c26d54; stroke-opacity: 0.85; stroke-width: 4.5375; stroke-linecap: round"/>
   </g>
   <g id="line2d_14">
    <path d="M 611.470588 378 
L 389.117647 378 
" clip-path="url(#pc75345d536)" style="fill: none; stroke: #c86852; stroke-opacity: 0.85; stroke-width: 3.551625; stroke-linecap: round"/>
   </g>
   <g id="line2d_15">
    <path d="M 945 133.411765 
L 611.470588 378 
" clip-path="url(#pc75345d536)" style="fill: none; stroke: #dc554a; stroke-opacity: 0.85; stroke-width: 3.403125; stroke-linecap: round"/>
   </g>
   <g id="line2d_16">
    <path d="M 611.470588 378 
L 244.588235 378 
" clip-path="url(#pc75345d536)" style="fill: none; stroke: #ea4845; stroke-opacity: 0.85; stroke-width: 3.551625; stroke-linecap: round"/>
   </g>
   <g id="line2d_17">
    <path d="M 277.941176 644.823529 
L 611.470588 378 
" clip-path="url(#pc75345d536)" style="fill: none; stroke: #ef4444; stroke-opacity: 0.85; stroke-width: 3.551625; stroke-linecap: round"/>
   </g>
   <g id="patch_8">
    <path d="M 88.941176 395.788235 
C 93.658672 395.788235 98.183585 393.913955 101.519358 390.578182 
C 104.855131 387.242409 106.729412 382.717495 106.729412 378 
C 106.729412 373.282505 104.855131 368.757591 101.519358 365.421818 
C 98.183585 362.086045 93.658672 360.211765 88.941176 360.211765 
C 84.223681 360.211765 79.698767 362.086045 76.362995 365.421818 
C 73.027222 368.757591 71.152941 373.282505 71.152941 378 
C 71.152941 382.717495 73.027222 387.242409 76.362995 390.578182 
C 79.698767 393.913955 84.223681 395.788235 88.941176 395.788235 
z
" clip-path="url(#pc75345d536)" style="fill: #ffffff; stroke: #ffffff; stroke-linejoin: miter"/>
   </g>
   <g id="patch_9">
    <path d="M 277.941176 128.964706 
C 282.658672 128.964706 287.183585 127.090425 290.519358 123.754652 
C 293.855131 120.41888 295.729412 115.893966 295.729412 111.176471 
C 295.729412 106.458975 293.855131 101.934062 290.519358 98.598289 
C 287.183585 95.262516 282.658672 93.388235 277.941176 93.388235 
C 273.223681 93.388235 268.698767 95.262516 265.362995 98.598289 
C 262.027222 101.934062 260.152941 106.458975 260.152941 111.176471 
C 260.152941 115.893966 262.027222 120.41888 265.362995 123.754652 
C 268.698767 127.090425 273.223681 128.964706 277.941176 128.964706 
z
" clip-path="url(#pc75345d536)" style="fill: #ffffff; stroke: #ffffff; stroke-linejoin: miter"/>
   </g>
   <g id="patch_10">
    <path d="M 244.588235 395.788235 
C 249.30573 395.788235 253.830644 393.913955 257.166417 390.578182 
C 260.50219 387.242409 262.376471 382.717495 262.376471 378 
C 262.376471 373.282505 260.50219 368.757591 257.166417 365.421818 
C 253.830644 362.086045 249.30573 360.211765 244.588235 360.211765 
C 239.87074 360.211765 235.345826 362.086045 232.010053 365.421818 
C 228.674281 368.757591 226.8 373.282505 226.8 378 
C 226.8 382.717495 228.674281 387.242409 232.010053 390.578182 
C 235.345826 393.913955 239.87074 395.788235 244.588235 395.788235 
z
" clip-path="url(#pc75345d536)" style="fill: #ffffff; stroke: #ffffff; stroke-linejoin: miter"/>
   </g>
   <g id="patch_11">
    <path d="M 244.588235 395.788235 
C 249.30573 395.788235 253.830644 393.913955 257.166417 390.578182 
C 260.50219 387.242409 262.376471 382.717495 262.376471 378 
C 262.376471 373.282505 260.50219 368.757591 257.166417 365.421818 
C 253.830644 362.086045 249.30573 360.211765 244.588235 360.211765 
C 239.87074 360.211765 235.345826 362.086045 232.010053 365.421818 
C 228.674281 368.757591 226.8 373.282505 226.8 378 
C 226.8 382.717495 228.674281 387.242409 232.010053 390.578182 
C 235.345826 393.913955 239.87074 395.788235 244.588235 395.788235 
z
" clip-path="url(#pc75345d536)" style="fill: #ffffff; stroke: #ffffff; stroke-linejoin: miter"/>
   </g>
   <g id="patch_12">
    <path d="M 277.941176 662.611765 
C 282.658672 662.611765 287.183585 660.737484 290.519358 657.401711 
C 293.855131 654.065938 295.729412 649.541025 295.729412 644.823529 
C 295.729412 640.106034 293.855131 635.58112 290.519358 632.245348 
C 287.183585 628.909575 282.658672 627.035294 277.941176 627.035294 
C 273.223681 627.035294 268.698767 628.909575 265.362995 632.245348 
C 262.027222 635.58112 260.152941 640.106034 260.152941 644.823529 
C 260.152941 649.541025 262.027222 654.065938 265.362995 657.401711 
C 268.698767 660.737484 273.223681 662.611765 277.941176 662.611765 
z
" clip-path="url(#pc75345d536)" style="fill: #ffffff; stroke: #ffffff; stroke-linejoin: miter"/>
   </g>
   <g id="patch_13">
    <path d="M 389.117647 395.788235 
C 393.835142 395.788235 398.360056 393.913955 401.695829 390.578182 
C 405.031602 387.242409 406.905882 382.717495 406.905882 378 
C 406.905882 373.282505 405.031602 368.757591 401.695829 365.421818 
C 398.360056 362.086045 393.835142 360.211765 389.117647 360.211765 
C 384.400152 360.211765 379.875238 362.086045 376.539465 365.421818 
C 373.203692 368.757591 371.329412 373.282505 371.329412 378 
C 371.329412 382.717495 373.203692 387.242409 376.539465 390.578182 
C 379.875238 393.913955 384.400152 395.788235 389.117647 395.788235 
z
" clip-path="url(#pc75345d536)" style="fill: #ffffff; stroke: #ffffff; stroke-linejoin: miter"/>
   </g>
   <g id="patch_14">
    <path d="M 611.470588 395.788235 
C 616.188083 395.788235 620.712997 393.913955 624.04877 390.578182 
C 627.384543 387.242409 629.258824 382.717495 629.258824 378 
C 629.258824 373.282505 627.384543 368.757591 624.04877 365.421818 
C 620.712997 362.086045 616.188083 360.211765 611.470588 360.211765 
C 606.753093 360.211765 602.228179 362.086045 598.892406 365.421818 
C 595.556634 368.757591 593.682353 373.282505 593.682353 378 
C 593.682353 382.717495 595.556634 387.242409 598.892406 390.578182 
C 602.228179 393.913955 606.753093 395.788235 611.470588 395.788235 
z
" clip-path="url(#pc75345d536)" style="fill: #ffffff; stroke: #ffffff; stroke-linejoin: miter"/>
   </g>
   <g id="patch_15">
    <path d="M 611.470588 395.788235 
C 616.188083 395.788235 620.712997 393.913955 624.04877 390.578182 
C 627.384543 387.242409 629.258824 382.717495 629.258824 378 
C 629.258824 373.282505 627.384543 368.757591 624.04877 365.421818 
C 620.712997 362.086045 616.188083 360.211765 611.470588 360.211765 
C 606.753093 360.211765 602.228179 362.086045 598.892406 365.421818 
C 595.556634 368.757591 593.682353 373.282505 593.682353 378 
C 593.682353 382.717495 595.556634 387.242409 598.892406 390.578182 
C 602.228179 393.913955 606.753093 395.788235 611.470588 395.788235 
z
" clip-path="url(#pc75345d536)" style="fill: #ffffff; stroke: #ffffff; stroke-linejoin: miter"/>
   </g>
   <g id="patch_16">
    <path d="M 945 151.2 
C 949.717495 151.2 954.242409 149.325719 957.578182 145.989947 
C 960.913955 142.654174 962.788235 138.12926 962.788235 133.411765 
C 962.788235 128.69427 960.913955 124.169356 957.578182 120.833583 
C 954.242409 117.49781 949.717495 115.623529 945 115.623529 
C 940.282505 115.623529 935.757591 117.49781 932.421818 120.833583 
C 929.086045 124.169356 927.211765 128.69427 927.211765 133.411765 
C 927.211765 138.12926 929.086045 142.654174 932.421818 145.989947 
C 935.757591 149.325719 940.282505 151.2 945 151.2 
z
" clip-path="url(#pc75345d536)" style="fill: #ffffff; stroke: #ffffff; stroke-linejoin: miter"/>
   </g>
   <g id="patch_17">
    <path d="M 1000.588235 395.788235 
C 1005.30573 395.788235 1009.830644 393.913955 1013.166417 390.578182 
C 1016.50219 387.242409 1018.376471 382.717495 1018.376471 378 
C 1018.376471 373.282505 1016.50219 368.757591 1013.166417 365.421818 
C 1009.830644 362.086045 1005.30573 360.211765 1000.588235 360.211765 
C 995.87074 360.211765 991.345826 362.086045 988.010053 365.421818 
C 984.674281 368.757591 982.8 373.282505 982.8 378 
C 982.8 382.717495 984.674281 387.242409 988.010053 390.578182 
C 991.345826 393.913955 995.87074 395.788235 1000.588235 395.788235 
z
" clip-path="url(#pc75345d536)" style="fill: #ffffff; stroke: #ffffff; stroke-linejoin: miter"/>
   </g>
   <g id="patch_18">
    <path d="M 945 640.376471 
C 949.717495 640.376471 954.242409 638.50219 957.578182 635.166417 
C 960.913955 631.830644 962.788235 627.30573 962.788235 622.588235 
C 962.788235 617.87074 960.913955 613.345826 957.578182 610.010053 
C 954.242409 606.674281 949.717495 604.8 945 604.8 
C 940.282505 604.8 935.757591 606.674281 932.421818 610.010053 
C 929.086045 613.345826 927.211765 617.87074 927.211765 622.588235 
C 927.211765 627.30573 929.086045 631.830644 932.421818 635.166417 
C 935.757591 638.50219 940.282505 640.376471 945 640.376471 
z
" clip-path="url(#pc75345d536)" style="fill: #ffffff; stroke: #ffffff; stroke-linejoin: miter"/>
   </g>
   <g id="patch_19">
    <path d="M 88.941176 392.452941 
C 92.774141 392.452941 96.450634 390.930088 99.160949 388.219773 
C 101.871265 385.509457 103.394118 381.832965 103.394118 378 
C 103.394118 374.167035 101.871265 370.490543 99.160949 367.780227 
C 96.450634 365.069912 92.774141 363.547059 88.941176 363.547059 
C 85.108212 363.547059 81.431719 365.069912 78.721404 367.780227 
C 76.011088 370.490543 74.488235 374.167035 74.488235 378 
C 74.488235 381.832965 76.011088 385.509457 78.721404 388.219773 
C 81.431719 390.930088 85.108212 392.452941 88.941176 392.452941 
z
" clip-path="url(#pc75345d536)" style="fill: #bf0d3e; stroke: #bf0d3e; stroke-linejoin: miter"/>
   </g>
   <g id="patch_20">
    <path d="M 277.941176 125.629412 
C 281.774141 125.629412 285.450634 124.106559 288.160949 121.396243 
C 290.871265 118.685928 292.394118 115.009435 292.394118 111.176471 
C 292.394118 107.343506 290.871265 103.667013 288.160949 100.956698 
C 285.450634 98.246382 281.774141 96.723529 277.941176 96.723529 
C 274.108212 96.723529 270.431719 98.246382 267.721404 100.956698 
C 265.011088 103.667013 263.488235 107.343506 263.488235 111.176471 
C 263.488235 115.009435 265.011088 118.685928 267.721404 121.396243 
C 270.431719 124.106559 274.108212 125.629412 277.941176 125.629412 
z
" clip-path="url(#pc75345d536)" style="fill: #bf0d3e; stroke: #bf0d3e; stroke-linejoin: miter"/>
   </g>
   <g id="patch_21">
    <path d="M 244.588235 392.452941 
C 248.4212 392.452941 252.097693 390.930088 254.808008 388.219773 
C 257.518323 385.509457 259.041176 381.832965 259.041176 378 
C 259.041176 374.167035 257.518323 370.490543 254.808008 367.780227 
C 252.097693 365.069912 248.4212 363.547059 244.588235 363.547059 
C 240.75527 363.547059 237.078778 365.069912 234.368463 367.780227 
C 231.658147 370.490543 230.135294 374.167035 230.135294 378 
C 230.135294 381.832965 231.658147 385.509457 234.368463 388.219773 
C 237.078778 390.930088 240.75527 392.452941 244.588235 392.452941 
z
" clip-path="url(#pc75345d536)" style="fill: #bf0d3e; stroke: #bf0d3e; stroke-linejoin: miter"/>
   </g>
   <g id="patch_22">
    <path d="M 244.588235 392.452941 
C 248.4212 392.452941 252.097693 390.930088 254.808008 388.219773 
C 257.518323 385.509457 259.041176 381.832965 259.041176 378 
C 259.041176 374.167035 257.518323 370.490543 254.808008 367.780227 
C 252.097693 365.069912 248.4212 363.547059 244.588235 363.547059 
C 240.75527 363.547059 237.078778 365.069912 234.368463 367.780227 
C 231.658147 370.490543 230.135294 374.167035 230.135294 378 
C 230.135294 381.832965 231.658147 385.509457 234.368463 388.219773 
C 237.078778 390.930088 240.75527 392.452941 244.588235 392.452941 
z
" clip-path="url(#pc75345d536)" style="fill: #bf0d3e; stroke: #bf0d3e; stroke-linejoin: miter"/>
   </g>
   <g id="patch_23">
    <path d="M 277.941176 659.276471 
C 281.774141 659.276471 285.450634 657.753618 288.160949 655.043302 
C 290.871265 652.332987 292.394118 648.656494 292.394118 644.823529 
C 292.394118 640.990565 290.871265 637.314072 288.160949 634.603757 
C 285.450634 631.893441 281.774141 630.370588 277.941176 630.370588 
C 274.108212 630.370588 270.431719 631.893441 267.721404 634.603757 
C 265.011088 637.314072 263.488235 640.990565 263.488235 644.823529 
C 263.488235 648.656494 265.011088 652.332987 267.721404 655.043302 
C 270.431719 657.753618 274.108212 659.276471 277.941176 659.276471 
z
" clip-path="url(#pc75345d536)" style="fill: #bf0d3e; stroke: #bf0d3e; stroke-linejoin: miter"/>
   </g>
   <g id="patch_24">
    <path d="M 389.117647 392.452941 
C 392.950612 392.452941 396.627104 390.930088 399.33742 388.219773 
C 402.047735 385.509457 403.570588 381.832965 403.570588 378 
C 403.570588 374.167035 402.047735 370.490543 399.33742 367.780227 
C 396.627104 365.069912 392.950612 363.547059 389.117647 363.547059 
C 385.284682 363.547059 381.60819 365.069912 378.897874 367.780227 
C 376.187559 370.490543 374.664706 374.167035 374.664706 378 
C 374.664706 381.832965 376.187559 385.509457 378.897874 388.219773 
C 381.60819 390.930088 385.284682 392.452941 389.117647 392.452941 
z
" clip-path="url(#pc75345d536)" style="fill: #bf0d3e; stroke: #bf0d3e; stroke-linejoin: miter"/>
   </g>
   <g id="patch_25">
    <path d="M 611.470588 392.452941 
C 615.303553 392.452941 618.980046 390.930088 621.690361 388.219773 
C 624.400676 385.509457 625.923529 381.832965 625.923529 378 
C 625.923529 374.167035 624.400676 370.490543 621.690361 367.780227 
C 618.980046 365.069912 615.303553 363.547059 611.470588 363.547059 
C 607.637623 363.547059 603.961131 365.069912 601.250816 367.780227 
C 598.5405 370.490543 597.017647 374.167035 597.017647 378 
C 597.017647 381.832965 598.5405 385.509457 601.250816 388.219773 
C 603.961131 390.930088 607.637623 392.452941 611.470588 392.452941 
z
" clip-path="url(#pc75345d536)" style="fill: #bf0d3e; stroke: #bf0d3e; stroke-linejoin: miter"/>
   </g>
   <g id="patch_26">
    <path d="M 611.470588 392.452941 
C 615.303553 392.452941 618.980046 390.930088 621.690361 388.219773 
C 624.400676 385.509457 625.923529 381.832965 625.923529 378 
C 625.923529 374.167035 624.400676 370.490543 621.690361 367.780227 
C 618.980046 365.069912 615.303553 363.547059 611.470588 363.547059 
C 607.637623 363.547059 603.961131 365.069912 601.250816 367.780227 
C 598.5405 370.490543 597.017647 374.167035 597.017647 378 
C 597.017647 381.832965 598.5405 385.509457 601.250816 388.219773 
C 603.961131 390.930088 607.637623 392.452941 611.470588 392.452941 
z
" clip-path="url(#pc75345d536)" style="fill: #bf0d3e; stroke: #bf0d3e; stroke-linejoin: miter"/>
   </g>
   <g id="patch_27">
    <path d="M 945 147.864706 
C 948.832965 147.864706 952.509457 146.341853 955.219773 143.631537 
C 957.930088 140.921222 959.452941 137.24473 959.452941 133.411765 
C 959.452941 129.5788 957.930088 125.902307 955.219773 123.191992 
C 952.509457 120.481677 948.832965 118.958824 945 118.958824 
C 941.167035 118.958824 937.490543 120.481677 934.780227 123.191992 
C 932.069912 125.902307 930.547059 129.5788 930.547059 133.411765 
C 930.547059 137.24473 932.069912 140.921222 934.780227 143.631537 
C 937.490543 146.341853 941.167035 147.864706 945 147.864706 
z
" clip-path="url(#pc75345d536)" style="fill: #bf0d3e; stroke: #bf0d3e; stroke-linejoin: miter"/>
   </g>
   <g id="patch_28">
    <path d="M 1000.588235 392.452941 
C 1004.4212 392.452941 1008.097693 390.930088 1010.808008 388.219773 
C 1013.518323 385.509457 1015.041176 381.832965 1015.041176 378 
C 1015.041176 374.167035 1013.518323 370.490543 1010.808008 367.780227 
C 1008.097693 365.069912 1004.4212 363.547059 1000.588235 363.547059 
C 996.75527 363.547059 993.078778 365.069912 990.368463 367.780227 
C 987.658147 370.490543 986.135294 374.167035 986.135294 378 
C 986.135294 381.832965 987.658147 385.509457 990.368463 388.219773 
C 993.078778 390.930088 996.75527 392.452941 1000.588235 392.452941 
z
" clip-path="url(#pc75345d536)" style="fill: #bf0d3e; stroke: #bf0d3e; stroke-linejoin: miter"/>
   </g>
   <g id="patch_29">
    <path d="M 945 637.041176 
C 948.832965 637.041176 952.509457 635.518323 955.219773 632.808008 
C 957.930088 630.097693 959.452941 626.4212 959.452941 622.588235 
C 959.452941 618.75527 957.930088 615.078778 955.219773 612.368463 
C 952.509457 609.658147 948.832965 608.135294 945 608.135294 
C 941.167035 608.135294 937.490543 609.658147 934.780227 612.368463 
C 932.069912 615.078778 930.547059 618.75527 930.547059 622.588235 
C 930.547059 626.4212 932.069912 630.097693 934.780227 632.808008 
C 937.490543 635.518323 941.167035 637.041176 945 637.041176 
z
" clip-path="url(#pc75345d536)" style="fill: #bf0d3e; stroke: #bf0d3e; stroke-linejoin: miter"/>
   </g>
   <g id="text_1">
    <!-- Matt Turner -->
    <g style="fill: #ffffff" transform="translate(55.76852 342.567371) scale(0.1 -0.1)">
     <defs>
      <path id="DejaVuSans-Bold-4d" d="M 588 4666 
L 2119 4666 
L 3181 2169 
L 4250 4666 
L 5778 4666 
L 5778 0 
L 4641 0 
L 4641 3413 
L 3566 897 
L 2803 897 
L 1728 3413 
L 1728 0 
L 588 0 
L 588 4666 
z
" transform="scale(0.015625)"/>
      <path id="DejaVuSans-Bold-61" d="M 2106 1575 
Q 1756 1575 1579 1456 
Q 1403 1338 1403 1106 
Q 1403 894 1545 773 
Q 1688 653 1941 653 
Q 2256 653 2472 879 
Q 2688 1106 2688 1447 
L 2688 1575 
L 2106 1575 
z
M 3816 1997 
L 3816 0 
L 2688 0 
L 2688 519 
Q 2463 200 2181 54 
Q 1900 -91 1497 -91 
Q 953 -91 614 226 
Q 275 544 275 1050 
Q 275 1666 698 1953 
Q 1122 2241 2028 2241 
L 2688 2241 
L 2688 2328 
Q 2688 2594 2478 2717 
Q 2269 2841 1825 2841 
Q 1466 2841 1156 2769 
Q 847 2697 581 2553 
L 581 3406 
Q 941 3494 1303 3539 
Q 1666 3584 2028 3584 
Q 2975 3584 3395 3211 
Q 3816 2838 3816 1997 
z
" transform="scale(0.015625)"/>
      <path id="DejaVuSans-Bold-74" d="M 1759 4494 
L 1759 3500 
L 2913 3500 
L 2913 2700 
L 1759 2700 
L 1759 1216 
Q 1759 972 1856 886 
Q 1953 800 2241 800 
L 2816 800 
L 2816 0 
L 1856 0 
Q 1194 0 917 276 
Q 641 553 641 1216 
L 641 2700 
L 84 2700 
L 84 3500 
L 641 3500 
L 641 4494 
L 1759 4494 
z
" transform="scale(0.015625)"/>
      <path id="DejaVuSans-Bold-20" transform="scale(0.015625)"/>
      <path id="DejaVuSans-Bold-54" d="M 31 4666 
L 4331 4666 
L 4331 3756 
L 2784 3756 
L 2784 0 
L 1581 0 
L 1581 3756 
L 31 3756 
L 31 4666 
z
" transform="scale(0.015625)"/>
      <path id="DejaVuSans-Bold-75" d="M 500 1363 
L 500 3500 
L 1625 3500 
L 1625 3150 
Q 1625 2866 1622 2436 
Q 1619 2006 1619 1863 
Q 1619 1441 1641 1255 
Q 1663 1069 1716 984 
Q 1784 875 1895 815 
Q 2006 756 2150 756 
Q 2500 756 2700 1025 
Q 2900 1294 2900 1772 
L 2900 3500 
L 4019 3500 
L 4019 0 
L 2900 0 
L 2900 506 
Q 2647 200 2364 54 
Q 2081 -91 1741 -91 
Q 1134 -91 817 281 
Q 500 653 500 1363 
z
" transform="scale(0.015625)"/>
      <path id="DejaVuSans-Bold-72" d="M 3138 2547 
Q 2991 2616 2845 2648 
Q 2700 2681 2553 2681 
Q 2122 2681 1889 2404 
Q 1656 2128 1656 1613 
L 1656 0 
L 538 0 
L 538 3500 
L 1656 3500 
L 1656 2925 
Q 1872 3269 2151 3426 
Q 2431 3584 2822 3584 
Q 2878 3584 2943 3579 
Q 3009 3575 3134 3559 
L 3138 2547 
z
" transform="scale(0.015625)"/>
      <path id="DejaVuSans-Bold-6e" d="M 4056 2131 
L 4056 0 
L 2931 0 
L 2931 347 
L 2931 1631 
Q 2931 2084 2911 2256 
Q 2891 2428 2841 2509 
Q 2775 2619 2662 2680 
Q 2550 2741 2406 2741 
Q 2056 2741 1856 2470 
Q 1656 2200 1656 1722 
L 1656 0 
L 538 0 
L 538 3500 
L 1656 3500 
L 1656 2988 
Q 1909 3294 2193 3439 
Q 2478 3584 2822 3584 
Q 3428 3584 3742 3212 
Q 4056 2841 4056 2131 
z
" transform="scale(0.015625)"/>
      <path id="DejaVuSans-Bold-65" d="M 4031 1759 
L 4031 1441 
L 1416 1441 
Q 1456 1047 1700 850 
Q 1944 653 2381 653 
Q 2734 653 3104 758 
Q 3475 863 3866 1075 
L 3866 213 
Q 3469 63 3072 -14 
Q 2675 -91 2278 -91 
Q 1328 -91 801 392 
Q 275 875 275 1747 
Q 275 2603 792 3093 
Q 1309 3584 2216 3584 
Q 3041 3584 3536 3087 
Q 4031 2591 4031 1759 
z
M 2881 2131 
Q 2881 2450 2695 2645 
Q 2509 2841 2209 2841 
Q 1884 2841 1681 2658 
Q 1478 2475 1428 2131 
L 2881 2131 
z
" transform="scale(0.015625)"/>
     </defs>
     <use xlink:href="#DejaVuSans-Bold-4d"/>
     <use xlink:href="#DejaVuSans-Bold-61" transform="translate(99.511719 0)"/>
     <use xlink:href="#DejaVuSans-Bold-74" transform="translate(166.992188 0)"/>
     <use xlink:href="#DejaVuSans-Bold-74" transform="translate(214.794922 0)"/>
     <use xlink:href="#DejaVuSans-Bold-20" transform="translate(262.597656 0)"/>
     <use xlink:href="#DejaVuSans-Bold-54" transform="translate(297.412109 0)"/>
     <use xlink:href="#DejaVuSans-Bold-75" transform="translate(354.625 0)"/>
     <use xlink:href="#DejaVuSans-Bold-72" transform="translate(425.816406 0)"/>
     <use xlink:href="#DejaVuSans-Bold-6e" transform="translate(475.132812 0)"/>
     <use xlink:href="#DejaVuSans-Bold-65" transform="translate(546.324219 0)"/>
     <use xlink:href="#DejaVuSans-Bold-72" transform="translate(614.146484 0)"/>
    </g>
   </g>
   <g id="text_2">
    <!-- Sergiño Dest -->
    <g style="fill: #ffffff" transform="translate(241.547426 75.665717) scale(0.1 -0.1)">
     <defs>
      <path id="DejaVuSans-Bold-53" d="M 3834 4519 
L 3834 3531 
Q 3450 3703 3084 3790 
Q 2719 3878 2394 3878 
Q 1963 3878 1756 3759 
Q 1550 3641 1550 3391 
Q 1550 3203 1689 3098 
Q 1828 2994 2194 2919 
L 2706 2816 
Q 3484 2659 3812 2340 
Q 4141 2022 4141 1434 
Q 4141 663 3683 286 
Q 3225 -91 2284 -91 
Q 1841 -91 1394 -6 
Q 947 78 500 244 
L 500 1259 
Q 947 1022 1364 901 
Q 1781 781 2169 781 
Q 2563 781 2772 912 
Q 2981 1044 2981 1288 
Q 2981 1506 2839 1625 
Q 2697 1744 2272 1838 
L 1806 1941 
Q 1106 2091 782 2419 
Q 459 2747 459 3303 
Q 459 4000 909 4375 
Q 1359 4750 2203 4750 
Q 2588 4750 2994 4692 
Q 3400 4634 3834 4519 
z
" transform="scale(0.015625)"/>
      <path id="DejaVuSans-Bold-67" d="M 2919 594 
Q 2688 288 2409 144 
Q 2131 0 1766 0 
Q 1125 0 706 504 
Q 288 1009 288 1791 
Q 288 2575 706 3076 
Q 1125 3578 1766 3578 
Q 2131 3578 2409 3434 
Q 2688 3291 2919 2981 
L 2919 3500 
L 4044 3500 
L 4044 353 
Q 4044 -491 3511 -936 
Q 2978 -1381 1966 -1381 
Q 1638 -1381 1331 -1331 
Q 1025 -1281 716 -1178 
L 716 -306 
Q 1009 -475 1290 -558 
Q 1572 -641 1856 -641 
Q 2406 -641 2662 -400 
Q 2919 -159 2919 353 
L 2919 594 
z
M 2181 2772 
Q 1834 2772 1640 2515 
Q 1447 2259 1447 1791 
Q 1447 1309 1634 1061 
Q 1822 813 2181 813 
Q 2531 813 2725 1069 
Q 2919 1325 2919 1791 
Q 2919 2259 2725 2515 
Q 2531 2772 2181 2772 
z
" transform="scale(0.015625)"/>
      <path id="DejaVuSans-Bold-69" d="M 538 3500 
L 1656 3500 
L 1656 0 
L 538 0 
L 538 3500 
z
M 538 4863 
L 1656 4863 
L 1656 3950 
L 538 3950 
L 538 4863 
z
" transform="scale(0.015625)"/>
      <path id="DejaVuSans-Bold-f1" d="M 4056 2131 
L 4056 0 
L 2931 0 
L 2931 347 
L 2931 1631 
Q 2931 2084 2911 2256 
Q 2891 2428 2841 2509 
Q 2775 2619 2662 2680 
Q 2550 2741 2406 2741 
Q 2056 2741 1856 2470 
Q 1656 2200 1656 1722 
L 1656 0 
L 538 0 
L 538 3500 
L 1656 3500 
L 1656 2988 
Q 1909 3294 2193 3439 
Q 2478 3584 2822 3584 
Q 3428 3584 3742 3212 
Q 4056 2841 4056 2131 
z
M 2366 4263 
L 2194 4378 
Q 2182 4384 2163 4397 
Q 2016 4494 1938 4494 
Q 1826 4494 1766 4397 
Q 1707 4300 1707 4116 
L 1707 4091 
L 1273 4091 
Q 1273 4516 1433 4747 
Q 1594 4978 1885 4978 
Q 1998 4978 2112 4936 
Q 2226 4894 2354 4800 
L 2544 4666 
Q 2613 4619 2671 4594 
Q 2729 4569 2776 4569 
Q 2888 4569 2950 4669 
Q 3013 4769 3013 4947 
L 3013 4972 
L 3448 4972 
Q 3448 4547 3287 4315 
Q 3126 4084 2835 4084 
Q 2723 4084 2618 4121 
Q 2513 4159 2366 4263 
z
" transform="scale(0.015625)"/>
      <path id="DejaVuSans-Bold-6f" d="M 2203 2784 
Q 1831 2784 1636 2517 
Q 1441 2250 1441 1747 
Q 1441 1244 1636 976 
Q 1831 709 2203 709 
Q 2569 709 2762 976 
Q 2956 1244 2956 1747 
Q 2956 2250 2762 2517 
Q 2569 2784 2203 2784 
z
M 2203 3584 
Q 3106 3584 3614 3096 
Q 4122 2609 4122 1747 
Q 4122 884 3614 396 
Q 3106 -91 2203 -91 
Q 1297 -91 786 396 
Q 275 884 275 1747 
Q 275 2609 786 3096 
Q 1297 3584 2203 3584 
z
" transform="scale(0.015625)"/>
      <path id="DejaVuSans-Bold-44" d="M 1791 3756 
L 1791 909 
L 2222 909 
Q 2959 909 3348 1275 
Q 3738 1641 3738 2338 
Q 3738 3031 3350 3393 
Q 2963 3756 2222 3756 
L 1791 3756 
z
M 588 4666 
L 1856 4666 
Q 2919 4666 3439 4514 
Q 3959 4363 4331 4000 
Q 4659 3684 4818 3271 
Q 4978 2859 4978 2338 
Q 4978 1809 4818 1395 
Q 4659 981 4331 666 
Q 3956 303 3431 151 
Q 2906 0 1856 0 
L 588 0 
L 588 4666 
z
" transform="scale(0.015625)"/>
      <path id="DejaVuSans-Bold-73" d="M 3272 3391 
L 3272 2541 
Q 2913 2691 2578 2766 
Q 2244 2841 1947 2841 
Q 1628 2841 1473 2761 
Q 1319 2681 1319 2516 
Q 1319 2381 1436 2309 
Q 1553 2238 1856 2203 
L 2053 2175 
Q 2913 2066 3209 1816 
Q 3506 1566 3506 1031 
Q 3506 472 3093 190 
Q 2681 -91 1863 -91 
Q 1516 -91 1145 -36 
Q 775 19 384 128 
L 384 978 
Q 719 816 1070 734 
Q 1422 653 1784 653 
Q 2113 653 2278 743 
Q 2444 834 2444 1013 
Q 2444 1163 2330 1236 
Q 2216 1309 1875 1350 
L 1678 1375 
Q 931 1469 631 1722 
Q 331 1975 331 2491 
Q 331 3047 712 3315 
Q 1094 3584 1881 3584 
Q 2191 3584 2531 3537 
Q 2872 3491 3272 3391 
z
" transform="scale(0.015625)"/>
     </defs>
     <use xlink:href="#DejaVuSans-Bold-53"/>
     <use xlink:href="#DejaVuSans-Bold-65" transform="translate(72.021484 0)"/>
     <use xlink:href="#DejaVuSans-Bold-72" transform="translate(139.84375 0)"/>
     <use xlink:href="#DejaVuSans-Bold-67" transform="translate(189.160156 0)"/>
     <use xlink:href="#DejaVuSans-Bold-69" transform="translate(260.742188 0)"/>
     <use xlink:href="#DejaVuSans-Bold-f1" transform="translate(295.019531 0)"/>
     <use xlink:href="#DejaVuSans-Bold-6f" transform="translate(366.210938 0)"/>
     <use xlink:href="#DejaVuSans-Bold-20" transform="translate(434.912109 0)"/>
     <use xlink:href="#DejaVuSans-Bold-44" transform="translate(469.726562 0)"/>
     <use xlink:href="#DejaVuSans-Bold-65" transform="translate(552.734375 0)"/>
     <use xlink:href="#DejaVuSans-Bold-73" transform="translate(620.556641 0)"/>
     <use xlink:href="#DejaVuSans-Bold-74" transform="translate(680.078125 0)"/>
    </g>
   </g>
   <g id="text_3">
    <!-- Chris Richards -->
    <g style="fill: #ffffff" transform="translate(203.981204 342.567371) scale(0.1 -0.1)">
     <defs>
      <path id="DejaVuSans-Bold-43" d="M 4288 256 
Q 3956 84 3597 -3 
Q 3238 -91 2847 -91 
Q 1681 -91 1000 561 
Q 319 1213 319 2328 
Q 319 3447 1000 4098 
Q 1681 4750 2847 4750 
Q 3238 4750 3597 4662 
Q 3956 4575 4288 4403 
L 4288 3438 
Q 3953 3666 3628 3772 
Q 3303 3878 2944 3878 
Q 2300 3878 1931 3465 
Q 1563 3053 1563 2328 
Q 1563 1606 1931 1193 
Q 2300 781 2944 781 
Q 3303 781 3628 887 
Q 3953 994 4288 1222 
L 4288 256 
z
" transform="scale(0.015625)"/>
      <path id="DejaVuSans-Bold-68" d="M 4056 2131 
L 4056 0 
L 2931 0 
L 2931 347 
L 2931 1625 
Q 2931 2084 2911 2256 
Q 2891 2428 2841 2509 
Q 2775 2619 2662 2680 
Q 2550 2741 2406 2741 
Q 2056 2741 1856 2470 
Q 1656 2200 1656 1722 
L 1656 0 
L 538 0 
L 538 4863 
L 1656 4863 
L 1656 2988 
Q 1909 3294 2193 3439 
Q 2478 3584 2822 3584 
Q 3428 3584 3742 3212 
Q 4056 2841 4056 2131 
z
" transform="scale(0.015625)"/>
      <path id="DejaVuSans-Bold-52" d="M 2297 2597 
Q 2675 2597 2839 2737 
Q 3003 2878 3003 3200 
Q 3003 3519 2839 3656 
Q 2675 3794 2297 3794 
L 1791 3794 
L 1791 2597 
L 2297 2597 
z
M 1791 1766 
L 1791 0 
L 588 0 
L 588 4666 
L 2425 4666 
Q 3347 4666 3776 4356 
Q 4206 4047 4206 3378 
Q 4206 2916 3982 2619 
Q 3759 2322 3309 2181 
Q 3556 2125 3751 1926 
Q 3947 1728 4147 1325 
L 4800 0 
L 3519 0 
L 2950 1159 
Q 2778 1509 2601 1637 
Q 2425 1766 2131 1766 
L 1791 1766 
z
" transform="scale(0.015625)"/>
      <path id="DejaVuSans-Bold-63" d="M 3366 3391 
L 3366 2478 
Q 3138 2634 2908 2709 
Q 2678 2784 2431 2784 
Q 1963 2784 1702 2511 
Q 1441 2238 1441 1747 
Q 1441 1256 1702 982 
Q 1963 709 2431 709 
Q 2694 709 2930 787 
Q 3166 866 3366 1019 
L 3366 103 
Q 3103 6 2833 -42 
Q 2563 -91 2291 -91 
Q 1344 -91 809 395 
Q 275 881 275 1747 
Q 275 2613 809 3098 
Q 1344 3584 2291 3584 
Q 2566 3584 2833 3536 
Q 3100 3488 3366 3391 
z
" transform="scale(0.015625)"/>
      <path id="DejaVuSans-Bold-64" d="M 2919 2988 
L 2919 4863 
L 4044 4863 
L 4044 0 
L 2919 0 
L 2919 506 
Q 2688 197 2409 53 
Q 2131 -91 1766 -91 
Q 1119 -91 703 423 
Q 288 938 288 1747 
Q 288 2556 703 3070 
Q 1119 3584 1766 3584 
Q 2128 3584 2408 3439 
Q 2688 3294 2919 2988 
z
M 2181 722 
Q 2541 722 2730 984 
Q 2919 1247 2919 1747 
Q 2919 2247 2730 2509 
Q 2541 2772 2181 2772 
Q 1825 2772 1636 2509 
Q 1447 2247 1447 1747 
Q 1447 1247 1636 984 
Q 1825 722 2181 722 
z
" transform="scale(0.015625)"/>
     </defs>
     <use xlink:href="#DejaVuSans-Bold-43"/>
     <use xlink:href="#DejaVuSans-Bold-68" transform="translate(73.388672 0)"/>
     <use xlink:href="#DejaVuSans-Bold-72" transform="translate(144.580078 0)"/>
     <use xlink:href="#DejaVuSans-Bold-69" transform="translate(193.896484 0)"/>
     <use xlink:href="#DejaVuSans-Bold-73" transform="translate(228.173828 0)"/>
     <use xlink:href="#DejaVuSans-Bold-20" transform="translate(287.695312 0)"/>
     <use xlink:href="#DejaVuSans-Bold-52" transform="translate(322.509766 0)"/>
     <use xlink:href="#DejaVuSans-Bold-69" transform="translate(399.511719 0)"/>
     <use xlink:href="#DejaVuSans-Bold-63" transform="translate(433.789062 0)"/>
     <use xlink:href="#DejaVuSans-Bold-68" transform="translate(493.066406 0)"/>
     <use xlink:href="#DejaVuSans-Bold-61" transform="translate(564.257812 0)"/>
     <use xlink:href="#DejaVuSans-Bold-72" transform="translate(631.738281 0)"/>
     <use xlink:href="#DejaVuSans-Bold-64" transform="translate(681.054688 0)"/>
     <use xlink:href="#DejaVuSans-Bold-73" transform="translate(752.636719 0)"/>
    </g>
   </g>
   <g id="text_4">
    <!-- Tim Ream -->
    <g style="fill: #ffffff" transform="translate(216.686673 342.567371) scale(0.1 -0.1)">
     <defs>
      <path id="DejaVuSans-Bold-6d" d="M 3781 2919 
Q 3994 3244 4286 3414 
Q 4578 3584 4928 3584 
Q 5531 3584 5847 3212 
Q 6163 2841 6163 2131 
L 6163 0 
L 5038 0 
L 5038 1825 
Q 5041 1866 5042 1909 
Q 5044 1953 5044 2034 
Q 5044 2406 4934 2573 
Q 4825 2741 4581 2741 
Q 4263 2741 4089 2478 
Q 3916 2216 3909 1719 
L 3909 0 
L 2784 0 
L 2784 1825 
Q 2784 2406 2684 2573 
Q 2584 2741 2328 2741 
Q 2006 2741 1831 2477 
Q 1656 2213 1656 1722 
L 1656 0 
L 531 0 
L 531 3500 
L 1656 3500 
L 1656 2988 
Q 1863 3284 2130 3434 
Q 2397 3584 2719 3584 
Q 3081 3584 3359 3409 
Q 3638 3234 3781 2919 
z
" transform="scale(0.015625)"/>
     </defs>
     <use xlink:href="#DejaVuSans-Bold-54"/>
     <use xlink:href="#DejaVuSans-Bold-69" transform="translate(68.212891 0)"/>
     <use xlink:href="#DejaVuSans-Bold-6d" transform="translate(102.490234 0)"/>
     <use xlink:href="#DejaVuSans-Bold-20" transform="translate(206.689453 0)"/>
     <use xlink:href="#DejaVuSans-Bold-52" transform="translate(241.503906 0)"/>
     <use xlink:href="#DejaVuSans-Bold-65" transform="translate(318.505859 0)"/>
     <use xlink:href="#DejaVuSans-Bold-61" transform="translate(386.328125 0)"/>
     <use xlink:href="#DejaVuSans-Bold-6d" transform="translate(453.808594 0)"/>
    </g>
   </g>
   <g id="text_5">
    <!-- Antonee Robinson -->
    <g style="fill: #ffffff" transform="translate(226.496645 609.390901) scale(0.1 -0.1)">
     <defs>
      <path id="DejaVuSans-Bold-41" d="M 3419 850 
L 1538 850 
L 1241 0 
L 31 0 
L 1759 4666 
L 3194 4666 
L 4922 0 
L 3713 0 
L 3419 850 
z
M 1838 1716 
L 3116 1716 
L 2478 3572 
L 1838 1716 
z
" transform="scale(0.015625)"/>
      <path id="DejaVuSans-Bold-62" d="M 2400 722 
Q 2759 722 2948 984 
Q 3138 1247 3138 1747 
Q 3138 2247 2948 2509 
Q 2759 2772 2400 2772 
Q 2041 2772 1848 2508 
Q 1656 2244 1656 1747 
Q 1656 1250 1848 986 
Q 2041 722 2400 722 
z
M 1656 2988 
Q 1888 3294 2169 3439 
Q 2450 3584 2816 3584 
Q 3463 3584 3878 3070 
Q 4294 2556 4294 1747 
Q 4294 938 3878 423 
Q 3463 -91 2816 -91 
Q 2450 -91 2169 54 
Q 1888 200 1656 506 
L 1656 0 
L 538 0 
L 538 4863 
L 1656 4863 
L 1656 2988 
z
" transform="scale(0.015625)"/>
     </defs>
     <use xlink:href="#DejaVuSans-Bold-41"/>
     <use xlink:href="#DejaVuSans-Bold-6e" transform="translate(77.392578 0)"/>
     <use xlink:href="#DejaVuSans-Bold-74" transform="translate(148.583984 0)"/>
     <use xlink:href="#DejaVuSans-Bold-6f" transform="translate(196.386719 0)"/>
     <use xlink:href="#DejaVuSans-Bold-6e" transform="translate(265.087891 0)"/>
     <use xlink:href="#DejaVuSans-Bold-65" transform="translate(336.279297 0)"/>
     <use xlink:href="#DejaVuSans-Bold-65" transform="translate(404.101562 0)"/>
     <use xlink:href="#DejaVuSans-Bold-20" transform="translate(471.923828 0)"/>
     <use xlink:href="#DejaVuSans-Bold-52" transform="translate(506.738281 0)"/>
     <use xlink:href="#DejaVuSans-Bold-6f" transform="translate(583.740234 0)"/>
     <use xlink:href="#DejaVuSans-Bold-62" transform="translate(652.441406 0)"/>
     <use xlink:href="#DejaVuSans-Bold-69" transform="translate(724.023438 0)"/>
     <use xlink:href="#DejaVuSans-Bold-6e" transform="translate(758.300781 0)"/>
     <use xlink:href="#DejaVuSans-Bold-73" transform="translate(829.492188 0)"/>
     <use xlink:href="#DejaVuSans-Bold-6f" transform="translate(889.013672 0)"/>
     <use xlink:href="#DejaVuSans-Bold-6e" transform="translate(957.714844 0)"/>
    </g>
   </g>
   <g id="text_6">
    <!-- Tyler Adams -->
    <g style="fill: #ffffff" transform="translate(354.720772 342.489246) scale(0.1 -0.1)">
     <defs>
      <path id="DejaVuSans-Bold-79" d="M 78 3500 
L 1197 3500 
L 2138 1125 
L 2938 3500 
L 4056 3500 
L 2584 -331 
Q 2363 -916 2067 -1148 
Q 1772 -1381 1288 -1381 
L 641 -1381 
L 641 -647 
L 991 -647 
Q 1275 -647 1404 -556 
Q 1534 -466 1606 -231 
L 1638 -134 
L 78 3500 
z
" transform="scale(0.015625)"/>
      <path id="DejaVuSans-Bold-6c" d="M 538 4863 
L 1656 4863 
L 1656 0 
L 538 0 
L 538 4863 
z
" transform="scale(0.015625)"/>
     </defs>
     <use xlink:href="#DejaVuSans-Bold-54"/>
     <use xlink:href="#DejaVuSans-Bold-79" transform="translate(56.337891 0)"/>
     <use xlink:href="#DejaVuSans-Bold-6c" transform="translate(121.523438 0)"/>
     <use xlink:href="#DejaVuSans-Bold-65" transform="translate(155.800781 0)"/>
     <use xlink:href="#DejaVuSans-Bold-72" transform="translate(223.623047 0)"/>
     <use xlink:href="#DejaVuSans-Bold-20" transform="translate(272.939453 0)"/>
     <use xlink:href="#DejaVuSans-Bold-41" transform="translate(307.753906 0)"/>
     <use xlink:href="#DejaVuSans-Bold-64" transform="translate(385.146484 0)"/>
     <use xlink:href="#DejaVuSans-Bold-61" transform="translate(456.728516 0)"/>
     <use xlink:href="#DejaVuSans-Bold-6d" transform="translate(524.208984 0)"/>
     <use xlink:href="#DejaVuSans-Bold-73" transform="translate(628.408203 0)"/>
    </g>
   </g>
   <g id="text_7">
    <!-- Weston McKennie -->
    <g style="fill: #ffffff" transform="translate(561.302619 342.567371) scale(0.1 -0.1)">
     <defs>
      <path id="DejaVuSans-Bold-57" d="M 191 4666 
L 1344 4666 
L 2150 1275 
L 2950 4666 
L 4109 4666 
L 4909 1275 
L 5716 4666 
L 6859 4666 
L 5759 0 
L 4372 0 
L 3525 3547 
L 2688 0 
L 1300 0 
L 191 4666 
z
" transform="scale(0.015625)"/>
      <path id="DejaVuSans-Bold-4b" d="M 588 4666 
L 1791 4666 
L 1791 2963 
L 3525 4666 
L 4922 4666 
L 2675 2456 
L 5153 0 
L 3647 0 
L 1791 1838 
L 1791 0 
L 588 0 
L 588 4666 
z
" transform="scale(0.015625)"/>
     </defs>
     <use xlink:href="#DejaVuSans-Bold-57"/>
     <use xlink:href="#DejaVuSans-Bold-65" transform="translate(106.677734 0)"/>
     <use xlink:href="#DejaVuSans-Bold-73" transform="translate(174.5 0)"/>
     <use xlink:href="#DejaVuSans-Bold-74" transform="translate(234.021484 0)"/>
     <use xlink:href="#DejaVuSans-Bold-6f" transform="translate(281.824219 0)"/>
     <use xlink:href="#DejaVuSans-Bold-6e" transform="translate(350.525391 0)"/>
     <use xlink:href="#DejaVuSans-Bold-20" transform="translate(421.716797 0)"/>
     <use xlink:href="#DejaVuSans-Bold-4d" transform="translate(456.53125 0)"/>
     <use xlink:href="#DejaVuSans-Bold-63" transform="translate(556.042969 0)"/>
     <use xlink:href="#DejaVuSans-Bold-4b" transform="translate(615.320312 0)"/>
     <use xlink:href="#DejaVuSans-Bold-65" transform="translate(691.060547 0)"/>
     <use xlink:href="#DejaVuSans-Bold-6e" transform="translate(758.882812 0)"/>
     <use xlink:href="#DejaVuSans-Bold-6e" transform="translate(830.074219 0)"/>
     <use xlink:href="#DejaVuSans-Bold-69" transform="translate(901.265625 0)"/>
     <use xlink:href="#DejaVuSans-Bold-65" transform="translate(935.542969 0)"/>
    </g>
   </g>
   <g id="text_8">
    <!-- Yunus Musah -->
    <g style="fill: #ffffff" transform="translate(574.373713 342.567371) scale(0.1 -0.1)">
     <defs>
      <path id="DejaVuSans-Bold-59" d="M -63 4666 
L 1253 4666 
L 2316 3003 
L 3378 4666 
L 4697 4666 
L 2919 1966 
L 2919 0 
L 1716 0 
L 1716 1966 
L -63 4666 
z
" transform="scale(0.015625)"/>
     </defs>
     <use xlink:href="#DejaVuSans-Bold-59"/>
     <use xlink:href="#DejaVuSans-Bold-75" transform="translate(65.162109 0)"/>
     <use xlink:href="#DejaVuSans-Bold-6e" transform="translate(136.353516 0)"/>
     <use xlink:href="#DejaVuSans-Bold-75" transform="translate(207.544922 0)"/>
     <use xlink:href="#DejaVuSans-Bold-73" transform="translate(278.736328 0)"/>
     <use xlink:href="#DejaVuSans-Bold-20" transform="translate(338.257812 0)"/>
     <use xlink:href="#DejaVuSans-Bold-4d" transform="translate(373.072266 0)"/>
     <use xlink:href="#DejaVuSans-Bold-75" transform="translate(472.583984 0)"/>
     <use xlink:href="#DejaVuSans-Bold-73" transform="translate(543.775391 0)"/>
     <use xlink:href="#DejaVuSans-Bold-61" transform="translate(603.296875 0)"/>
     <use xlink:href="#DejaVuSans-Bold-68" transform="translate(670.777344 0)"/>
    </g>
   </g>
   <g id="text_9">
    <!-- Christian Pulisic -->
    <g style="fill: #ffffff" transform="translate(899.53125 97.979136) scale(0.1 -0.1)">
     <defs>
      <path id="DejaVuSans-Bold-50" d="M 588 4666 
L 2584 4666 
Q 3475 4666 3951 4270 
Q 4428 3875 4428 3144 
Q 4428 2409 3951 2014 
Q 3475 1619 2584 1619 
L 1791 1619 
L 1791 0 
L 588 0 
L 588 4666 
z
M 1791 3794 
L 1791 2491 
L 2456 2491 
Q 2806 2491 2997 2661 
Q 3188 2831 3188 3144 
Q 3188 3456 2997 3625 
Q 2806 3794 2456 3794 
L 1791 3794 
z
" transform="scale(0.015625)"/>
     </defs>
     <use xlink:href="#DejaVuSans-Bold-43"/>
     <use xlink:href="#DejaVuSans-Bold-68" transform="translate(73.388672 0)"/>
     <use xlink:href="#DejaVuSans-Bold-72" transform="translate(144.580078 0)"/>
     <use xlink:href="#DejaVuSans-Bold-69" transform="translate(193.896484 0)"/>
     <use xlink:href="#DejaVuSans-Bold-73" transform="translate(228.173828 0)"/>
     <use xlink:href="#DejaVuSans-Bold-74" transform="translate(287.695312 0)"/>
     <use xlink:href="#DejaVuSans-Bold-69" transform="translate(335.498047 0)"/>
     <use xlink:href="#DejaVuSans-Bold-61" transform="translate(369.775391 0)"/>
     <use xlink:href="#DejaVuSans-Bold-6e" transform="translate(437.255859 0)"/>
     <use xlink:href="#DejaVuSans-Bold-20" transform="translate(508.447266 0)"/>
     <use xlink:href="#DejaVuSans-Bold-50" transform="translate(543.261719 0)"/>
     <use xlink:href="#DejaVuSans-Bold-75" transform="translate(616.552734 0)"/>
     <use xlink:href="#DejaVuSans-Bold-6c" transform="translate(687.744141 0)"/>
     <use xlink:href="#DejaVuSans-Bold-69" transform="translate(722.021484 0)"/>
     <use xlink:href="#DejaVuSans-Bold-73" transform="translate(756.298828 0)"/>
     <use xlink:href="#DejaVuSans-Bold-69" transform="translate(815.820312 0)"/>
     <use xlink:href="#DejaVuSans-Bold-63" transform="translate(850.097656 0)"/>
    </g>
   </g>
   <g id="text_10">
    <!-- Folarin Balogun -->
    <g style="fill: #ffffff" transform="translate(956.337454 342.489246) scale(0.1 -0.1)">
     <defs>
      <path id="DejaVuSans-Bold-46" d="M 588 4666 
L 3834 4666 
L 3834 3756 
L 1791 3756 
L 1791 2888 
L 3713 2888 
L 3713 1978 
L 1791 1978 
L 1791 0 
L 588 0 
L 588 4666 
z
" transform="scale(0.015625)"/>
      <path id="DejaVuSans-Bold-42" d="M 2456 2859 
Q 2741 2859 2887 2984 
Q 3034 3109 3034 3353 
Q 3034 3594 2887 3720 
Q 2741 3847 2456 3847 
L 1791 3847 
L 1791 2859 
L 2456 2859 
z
M 2497 819 
Q 2859 819 3042 972 
Q 3225 1125 3225 1434 
Q 3225 1738 3044 1889 
Q 2863 2041 2497 2041 
L 1791 2041 
L 1791 819 
L 2497 819 
z
M 3616 2497 
Q 4003 2384 4215 2081 
Q 4428 1778 4428 1338 
Q 4428 663 3972 331 
Q 3516 0 2584 0 
L 588 0 
L 588 4666 
L 2394 4666 
Q 3366 4666 3802 4372 
Q 4238 4078 4238 3431 
Q 4238 3091 4078 2852 
Q 3919 2613 3616 2497 
z
" transform="scale(0.015625)"/>
     </defs>
     <use xlink:href="#DejaVuSans-Bold-46"/>
     <use xlink:href="#DejaVuSans-Bold-6f" transform="translate(64.310547 0)"/>
     <use xlink:href="#DejaVuSans-Bold-6c" transform="translate(133.011719 0)"/>
     <use xlink:href="#DejaVuSans-Bold-61" transform="translate(167.289062 0)"/>
     <use xlink:href="#DejaVuSans-Bold-72" transform="translate(234.769531 0)"/>
     <use xlink:href="#DejaVuSans-Bold-69" transform="translate(284.085938 0)"/>
     <use xlink:href="#DejaVuSans-Bold-6e" transform="translate(318.363281 0)"/>
     <use xlink:href="#DejaVuSans-Bold-20" transform="translate(389.554688 0)"/>
     <use xlink:href="#DejaVuSans-Bold-42" transform="translate(424.369141 0)"/>
     <use xlink:href="#DejaVuSans-Bold-61" transform="translate(500.589844 0)"/>
     <use xlink:href="#DejaVuSans-Bold-6c" transform="translate(568.070312 0)"/>
     <use xlink:href="#DejaVuSans-Bold-6f" transform="translate(602.347656 0)"/>
     <use xlink:href="#DejaVuSans-Bold-67" transform="translate(671.048828 0)"/>
     <use xlink:href="#DejaVuSans-Bold-75" transform="translate(742.630859 0)"/>
     <use xlink:href="#DejaVuSans-Bold-6e" transform="translate(813.822266 0)"/>
    </g>
   </g>
   <g id="text_11">
    <!-- Tim Weah -->
    <g style="fill: #ffffff" transform="translate(917.265625 587.155607) scale(0.1 -0.1)">
     <use xlink:href="#DejaVuSans-Bold-54"/>
     <use xlink:href="#DejaVuSans-Bold-69" transform="translate(68.212891 0)"/>
     <use xlink:href="#DejaVuSans-Bold-6d" transform="translate(102.490234 0)"/>
     <use xlink:href="#DejaVuSans-Bold-20" transform="translate(206.689453 0)"/>
     <use xlink:href="#DejaVuSans-Bold-57" transform="translate(241.503906 0)"/>
     <use xlink:href="#DejaVuSans-Bold-65" transform="translate(348.181641 0)"/>
     <use xlink:href="#DejaVuSans-Bold-61" transform="translate(416.003906 0)"/>
     <use xlink:href="#DejaVuSans-Bold-68" transform="translate(483.484375 0)"/>
    </g>
   </g>
  </g>
 </g>
 <defs>
  <clipPath id="pc75345d536">
   <rect x="0" y="-0" width="1167.352941" height="756"/>
  </clipPath>
 </defs>
</svg>
